<?xml version='1.0' encoding='UTF-8' standalone='no'?>
<!-- Created with Fritzing (http://www.fritzing.org/) -->
<svg xmlns="http://www.w3.org/2000/svg" width="2.75591in" baseProfile="tiny" version="1.2"  x="0in" y="0in" xmlns:svg="http://www.w3.org/2000/svg" viewBox="0 0 198.425 113.386" height="1.5748in">
 <g transform="matrix(-1, 0, 0, 1, 198.425, 0)">
  <g partID="57690">
   <g  id="board">
    <rect fill="none" width="197.849" stroke-width="0.5" fill-opacity="0.5"  x="0.288" y="0.288" stroke="black" id="boardoutline" height="112.81"/>
   </g>
  </g>
  <g partID="856379590">
   <g transform="translate(33.8998,116.374)">
    <g transform="matrix(-1,0,0,-1,0,0)">
     <g id="copper0">
      <g width="4.32" fill="none" stroke-width="1.44" x="12.24" y="6.72661" stroke="black" id="0" height="4.32"/>
      <g fill="none" r="2.16" stroke-width="1.44" cx="14.4" cy="8.8866" stroke="black" id="1"/>
      <g fill="none" r="2.16" stroke-width="1.44" cx="14.4" cy="23.0599" stroke="black" id="2"/>
     </g>
    </g>
   </g>
  </g>
  <g partID="856461030">
   <g transform="translate(87.7809,111.803)">
    <g transform="matrix(0,-1,1,0,0,0)">
     <g  gorn="0.3.0" id="copper0">
      <g fill="none" width="3.96" stroke-width="2"  x="2.34" y="2.34" gorn="0.3.0.0" stroke="black" id="3" height="3.96"/>
      <g fill="none" r="1.98" stroke-width="2" cx="4.32" cy="4.32"  gorn="0.3.0.1" stroke="black" id="4"/>
      <g fill="none" r="1.98" stroke-width="2" cx="25.92" cy="4.32"  gorn="0.3.0.2" stroke="black" id="5"/>
      <g fill="none" r="1.98" stroke-width="2" cx="4.32" cy="11.52"  gorn="0.3.0.3" stroke="black" id="6"/>
      <g fill="none" r="1.98" stroke-width="2" cx="25.92" cy="11.52"  gorn="0.3.0.4" stroke="black" id="7"/>
      <g fill="none" r="1.98" stroke-width="2" cx="4.32" cy="18.72"  gorn="0.3.0.5" stroke="black" id="8"/>
      <g fill="none" r="1.98" stroke-width="2" cx="25.92" cy="18.72"  gorn="0.3.0.6" stroke="black" id="9"/>
     </g>
    </g>
   </g>
  </g>
  <g partID="856455010">
   <g transform="translate(85.9809,57.8026)">
    <g transform="matrix(0,-1,1,0,0,0)">
     <g  gorn="0.3.0" id="copper0">
      <g fill="none" width="3.96" stroke-width="2"  x="2.34" y="2.34" gorn="0.3.0.0" stroke="black" id="10" height="3.96"/>
      <g fill="none" r="1.98" stroke-width="2" cx="4.32" cy="4.32"  gorn="0.3.0.1" stroke="black" id="11"/>
      <g fill="none" r="1.98" stroke-width="2" cx="25.92" cy="4.32"  gorn="0.3.0.2" stroke="black" id="12"/>
      <g fill="none" r="1.98" stroke-width="2" cx="4.32" cy="11.52"  gorn="0.3.0.3" stroke="black" id="13"/>
      <g fill="none" r="1.98" stroke-width="2" cx="25.92" cy="11.52"  gorn="0.3.0.4" stroke="black" id="14"/>
      <g fill="none" r="1.98" stroke-width="2" cx="4.32" cy="18.72"  gorn="0.3.0.5" stroke="black" id="15"/>
      <g fill="none" r="1.98" stroke-width="2" cx="25.92" cy="18.72"  gorn="0.3.0.6" stroke="black" id="16"/>
     </g>
    </g>
   </g>
  </g>
  <g partID="856526450">
   <g transform="translate(11.7489,48.7306)">
    <g  id="copper0">
     <g fill="none" r="1.98" stroke-width="1.44" cx="4.752" cy="4.752"  stroke="black" id="17"/>
     <g fill="none" r="1.98" stroke-width="1.44" cx="26.352" cy="4.752"  stroke="black" id="18"/>
    </g>
   </g>
  </g>
  <g partID="856355280">
   <g transform="translate(21.0009,15.6106)">
    <g  id="copper0">
     <g  id="copper1">
      <!-- <rect width="55" x="10" y="23.5" fill="none" height="55" stroke="rgb(255, 191, 0)" stroke-width="20" /> -->
      <g fill="none" r="1.98" stroke-width="1.44" cx="2.7" cy="3.672"  stroke="black" id="19"/>
      <g fill="none" r="1.98" stroke-width="1.44" cx="38.7" cy="3.672"  stroke="black" id="20"/>
     </g>
    </g>
   </g>
  </g>
  <g partID="856443330">
   <g transform="translate(26.4009,59.7826)">
    <g transform="matrix(0,1,-1,0,0,0)">
     <g  id="copper0">
      <g  id="copper1">
       <!-- <rect width="55" x="10" y="10" fill="none" height="55" stroke="rgb(255, 191, 0)" stroke-width="20" /> -->
       <g fill="none" r="1.98" stroke-width="1.44" cx="2.7" cy="2.7"  stroke="black" id="21"/>
       <g fill="none" r="1.98" stroke-width="1.44" cx="24.3" cy="2.7"  stroke="black" id="22"/>
      </g>
     </g>
    </g>
   </g>
  </g>
  <g partID="856657320">
   <g transform="translate(65.9876,91.3546)">
    <g transform="matrix(0,1,-1,0,0,0)">
     <g id="copper0" flipped="1">
      <g transform="matrix(-1, 0, 0, 1, 19.152, 0)">
       <g>
        <g>
         <g>
          <rect width="3.456" fill="black" stroke-width="0" x="1.296" y="17.5187" stroke="none" connectorname="1" stroke-linecap="round" id="23" height="6.336"/>
          <rect width="3.456" fill="black" stroke-width="0" x="7.848" y="17.5187" stroke="none" connectorname="2" stroke-linecap="round" id="24" height="6.336"/>
          <rect width="3.456" fill="black" stroke-width="0" x="14.4" y="17.5187" stroke="none" connectorname="3" stroke-linecap="round" id="25" height="6.336"/>
          <rect width="10.2047" fill="black" stroke-width="0" x="4.47364" y="0" stroke="none" connectorname="4" stroke-linecap="round" id="26" height="6.23622"/>
          <g id="27"/>
         </g>
         <g id="28"/>
        </g>
       </g>
      </g>
     </g>
    </g>
   </g>
  </g>
  <g partID="856657310">
   <g transform="translate(62.3876,57.1546)">
    <g transform="matrix(0,1,-1,0,0,0)">
     <g id="copper0" flipped="1">
      <g transform="matrix(-1, 0, 0, 1, 19.152, 0)">
       <g>
        <g>
         <g gorn="0.3.0">
          <rect width="3.456" fill="black" stroke-width="0" x="1.296" y="17.5187" gorn="0.3.0.0" stroke="none" connectorname="1" stroke-linecap="round" height="6.33599" id="29"/>
          <rect width="3.456" fill="black" stroke-width="0" x="7.848" y="17.5187" gorn="0.3.0.1" stroke="none" connectorname="2" stroke-linecap="round" height="6.33599" id="30"/>
          <rect width="3.456" fill="black" stroke-width="0" x="14.4" y="17.5187" gorn="0.3.0.2" stroke="none" connectorname="3" stroke-linecap="round" height="6.33599" id="31"/>
          <rect width="10.2047" fill="black" stroke-width="0" x="4.47364" y="0" gorn="0.3.0.3" stroke="none" connectorname="4" stroke-linecap="round" height="6.23621" id="32"/>
          <g gorn="0.3.0.4" id="33"/>
         </g>
         <g gorn="0.3.0.4" id="34"/>
        </g>
       </g>
      </g>
     </g>
    </g>
   </g>
  </g>
  <g partID="856328190">
   <g transform="translate(41.7845,21.8414)">
    <g transform="matrix(0,1,-1,0,0,0)">
     <g  gorn="0.2.9" id="copper0">
      <g width="4.13019" fill="none" stroke-width="1.23181"  x="1.84772" y="1.836" stroke="black" height="4.104" id="35"/>
      <g fill="none" r="2.0651" stroke-width="1.23181" cx="3.91281" cy="3.888"  gorn="0.2.9.1" stroke="black" connectorname="1" id="36"/>
      <g fill="none" r="2.0651" stroke-width="1.23181" cx="3.91281" cy="11.088"  gorn="0.2.9.2" stroke="black" connectorname="2" id="37"/>
      <g fill="none" r="2.0651" stroke-width="1.23181" cx="11.1588" cy="3.888"  gorn="0.2.9.3" stroke="black" connectorname="3" id="38"/>
      <g fill="none" r="2.0651" stroke-width="1.23181" cx="11.1588" cy="11.088"  gorn="0.2.9.4" stroke="black" connectorname="4" id="39"/>
      <g fill="none" r="2.0651" stroke-width="1.23181" cx="18.4047" cy="3.888"  gorn="0.2.9.5" stroke="black" connectorname="5" id="40"/>
      <g fill="none" r="2.0651" stroke-width="1.23181" cx="18.4047" cy="11.088"  gorn="0.2.9.6" stroke="black" connectorname="6" id="41"/>
      <g width="4.13019" fill="none" stroke-width="1.23181"  x="23.5856" y="1.836" stroke="black" height="4.104" id="42"/>
      <g fill="none" r="2.0651" stroke-width="1.23181" cx="25.6507" cy="3.888"  gorn="0.2.9.8" stroke="black" connectorname="7" id="43"/>
      <g fill="none" r="2.0651" stroke-width="1.23181" cx="25.6507" cy="11.088"  gorn="0.2.9.9" stroke="black" connectorname="8" id="44"/>
     </g>
    </g>
   </g>
  </g>
  <g partID="856360140">
   <g transform="translate(116.621,5.88882)">
    <g transform="matrix(1, 0, 0, 1, 0, -795.118)">
     <g id="copper0">
      <g>
       <g id="copper1">
        <g transform="matrix(1, 0, 0, 1, 0, 795.118)">
         <g id="0.3.1.0">
          <g fill="none" stroke-width="2.83465" d="m10.4882,23.3858a3.25984,3.25984,0,1,1,-6.51969,0,3.25984,3.25984,0,1,1,6.51969,0z" stroke="black" style="opacity:0.98000004;stroke-miterlimit:4;stroke-dasharray:none" id="45" stroke-opacity="1"/>
         </g>
        </g>
        <g transform="matrix(1, 0, 0, 1, 5.81102, 812.126)">
         <g id="0.3.1.1">
          <g fill="none" stroke-width="2.83465" d="m10.4882,23.3858a3.25984,3.25984,0,1,1,-6.51969,0,3.25984,3.25984,0,1,1,6.51969,0z" stroke="black" style="opacity:0.98000004;stroke-miterlimit:4;stroke-dasharray:none" id="46" stroke-opacity="1"/>
         </g>
        </g>
        <g transform="matrix(1, 0, 0, 1, 40.252, 812.126)">
         <g id="0.3.1.2">
          <g fill="none" stroke-width="2.83465" d="m10.4882,23.3858a3.25984,3.25984,0,1,1,-6.51969,0,3.25984,3.25984,0,1,1,6.51969,0z" stroke="black" style="opacity:0.98000004;stroke-miterlimit:4;stroke-dasharray:none" id="47" stroke-opacity="1"/>
         </g>
        </g>
        <g transform="matrix(1, 0, 0, 1, 5.81102, 812.126)">
         <g id="0.3.1.3">
          <g fill="none" stroke-width="2.83465" d="m10.4882,23.3858a3.25984,3.25984,0,1,1,-6.51969,0,3.25984,3.25984,0,1,1,6.51969,0z" stroke="black" style="opacity:0.98000004;stroke-miterlimit:4;stroke-dasharray:none" id="48" stroke-opacity="1"/>
         </g>
        </g>
        <g transform="matrix(1, 0, 0, 1, 40.252, 812.126)">
         <g id="0.3.1.4">
          <g fill="none" stroke-width="2.83465" d="m10.4882,23.3858a3.25984,3.25984,0,1,1,-6.51969,0,3.25984,3.25984,0,1,1,6.51969,0z" stroke="black" style="opacity:0.98000004;stroke-miterlimit:4;stroke-dasharray:none" id="49" stroke-opacity="1"/>
         </g>
        </g>
        <g transform="matrix(1, 0, 0, -1, 5.81102, 824.882)">
         <g id="0.3.1.5">
          <g fill="none" stroke-width="2.83465" d="m10.4882,23.3858a3.25984,3.25984,0,1,1,-6.51969,0,3.25984,3.25984,0,1,1,6.51969,0z" stroke="black" style="opacity:0.98000004;stroke-miterlimit:4;stroke-dasharray:none" id="50" stroke-opacity="1"/>
         </g>
        </g>
        <g transform="matrix(1, 0, 0, -1, 40.252, 824.882)">
         <g id="0.3.1.6">
          <g fill="none" stroke-width="2.83465" d="m10.4882,23.3858a3.25984,3.25984,0,1,1,-6.51969,0,3.25984,3.25984,0,1,1,6.51969,0z" stroke="black" style="opacity:0.98000004;stroke-miterlimit:4;stroke-dasharray:none" id="51" stroke-opacity="1"/>
         </g>
        </g>
       </g>
      </g>
     </g>
    </g>
   </g>
  </g>
  <g partID="856359000">
   <g transform="translate(116.442,59.5311)">
    <g transform="matrix(1, 0, 0, 1, 0, -795.118)">
     <g id="copper0">
      <g>
       <g id="copper1">
        <g transform="matrix(1, 0, 0, 1, 0, 795.118)">
         <g id="0.3.1.0">
          <g fill="none" stroke-width="2.83465" d="m10.4882,23.3858a3.25984,3.25984,0,1,1,-6.51969,0,3.25984,3.25984,0,1,1,6.51969,0z" stroke="black" style="opacity:0.98000004;stroke-miterlimit:4;stroke-dasharray:none" id="52" stroke-opacity="1"/>
         </g>
        </g>
        <g transform="matrix(1, 0, 0, 1, 5.81102, 812.126)">
         <g id="0.3.1.1">
          <g fill="none" stroke-width="2.83465" d="m10.4882,23.3858a3.25984,3.25984,0,1,1,-6.51969,0,3.25984,3.25984,0,1,1,6.51969,0z" stroke="black" style="opacity:0.98000004;stroke-miterlimit:4;stroke-dasharray:none" id="53" stroke-opacity="1"/>
         </g>
        </g>
        <g transform="matrix(1, 0, 0, 1, 40.252, 812.126)">
         <g id="0.3.1.2">
          <g fill="none" stroke-width="2.83465" d="m10.4882,23.3858a3.25984,3.25984,0,1,1,-6.51969,0,3.25984,3.25984,0,1,1,6.51969,0z" stroke="black" style="opacity:0.98000004;stroke-miterlimit:4;stroke-dasharray:none" id="54" stroke-opacity="1"/>
         </g>
        </g>
        <g transform="matrix(1, 0, 0, 1, 5.81102, 812.126)">
         <g id="0.3.1.3">
          <g fill="none" stroke-width="2.83465" d="m10.4882,23.3858a3.25984,3.25984,0,1,1,-6.51969,0,3.25984,3.25984,0,1,1,6.51969,0z" stroke="black" style="opacity:0.98000004;stroke-miterlimit:4;stroke-dasharray:none" id="55" stroke-opacity="1"/>
         </g>
        </g>
        <g transform="matrix(1, 0, 0, 1, 40.252, 812.126)">
         <g id="0.3.1.4">
          <g fill="none" stroke-width="2.83465" d="m10.4882,23.3858a3.25984,3.25984,0,1,1,-6.51969,0,3.25984,3.25984,0,1,1,6.51969,0z" stroke="black" style="opacity:0.98000004;stroke-miterlimit:4;stroke-dasharray:none" id="56" stroke-opacity="1"/>
         </g>
        </g>
        <g transform="matrix(1, 0, 0, -1, 5.81102, 824.882)">
         <g id="0.3.1.5">
          <g fill="none" stroke-width="2.83465" d="m10.4882,23.3858a3.25984,3.25984,0,1,1,-6.51969,0,3.25984,3.25984,0,1,1,6.51969,0z" stroke="black" style="opacity:0.98000004;stroke-miterlimit:4;stroke-dasharray:none" id="57" stroke-opacity="1"/>
         </g>
        </g>
        <g transform="matrix(1, 0, 0, -1, 40.252, 824.882)">
         <g id="0.3.1.6">
          <g fill="none" stroke-width="2.83465" d="m10.4882,23.3858a3.25984,3.25984,0,1,1,-6.51969,0,3.25984,3.25984,0,1,1,6.51969,0z" stroke="black" style="opacity:0.98000004;stroke-miterlimit:4;stroke-dasharray:none" id="58" stroke-opacity="1"/>
         </g>
        </g>
       </g>
      </g>
     </g>
    </g>
   </g>
  </g>
  <g partID="856360520">
   <g transform="translate(201.919,52.3149)">
    <g transform="matrix(-1,0,0,-1,0,0)">
     <g id="copper0">
      <g width="4.32" fill="none" stroke-width="1.44" x="12.24" y="6.72661" stroke="black" id="59" height="4.32"/>
      <g fill="none" r="2.16" stroke-width="1.44" cx="14.4" cy="8.8866" stroke="black" id="60"/>
      <g fill="none" r="2.16" stroke-width="1.44" cx="14.4" cy="23.0599" stroke="black" id="61"/>
      <g fill="none" r="2.16" stroke-width="1.44" cx="14.4" cy="37.2331" stroke="black" id="62"/>
     </g>
    </g>
   </g>
  </g>
  <g partID="856359560">
   <g transform="translate(201.205,106.094)">
    <g transform="matrix(-1,0,0,-1,0,0)">
     <g id="copper0">
      <g width="4.32" fill="none" stroke-width="1.44" x="12.24" y="6.72661" stroke="black" id="63" height="4.32"/>
      <g fill="none" r="2.16" stroke-width="1.44" cx="14.4" cy="8.8866" stroke="black" id="64"/>
      <g fill="none" r="2.16" stroke-width="1.44" cx="14.4" cy="23.0599" stroke="black" id="65"/>
      <g fill="none" r="2.16" stroke-width="1.44" cx="14.4" cy="37.2331" stroke="black" id="66"/>
     </g>
    </g>
   </g>
  </g>
  <g partID="856594640">
   <g transform="translate(86.7009,63.2746)">
    <g  id="copper0">
     <g fill="none" r="1.98" stroke-width="1.44" cx="3.6" cy="8.208"  stroke="black" id="67"/>
     <g fill="none" r="1.98" stroke-width="1.44" cx="10.8" cy="8.208"  stroke="black" id="68"/>
     <g fill="none" r="1.98" stroke-width="1.44" cx="18" cy="8.208"  stroke="black" id="69"/>
    </g>
   </g>
  </g>
  <g partID="856598220">
   <g transform="translate(86.7009,7.47458)">
    <g  id="copper0">
     <g fill="none" r="1.98" stroke-width="1.44" cx="3.6" cy="8.208"  stroke="black" id="70"/>
     <g fill="none" r="1.98" stroke-width="1.44" cx="10.8" cy="8.208"  stroke="black" id="71"/>
     <g fill="none" r="1.98" stroke-width="1.44" cx="18" cy="8.208"  stroke="black" id="72"/>
    </g>
   </g>
  </g>
  <g partID="856633970">
   <g transform="translate(111.001,81.3826)">
    <g transform="matrix(-1,0,0,-1,0,0)">
     <g  id="copper0">
      <g  id="copper1">
       <!-- <rect width="55" x="10" y="10" fill="none" height="55" stroke="rgb(255, 191, 0)" stroke-width="20" /> -->
       <g fill="none" r="1.98" stroke-width="1.44" cx="2.7" cy="2.7"  stroke="black" id="73"/>
       <g fill="none" r="1.98" stroke-width="1.44" cx="24.3" cy="2.7"  stroke="black" id="74"/>
      </g>
     </g>
    </g>
   </g>
  </g>
  <g partID="856633750">
   <g transform="translate(111.001,27.3826)">
    <g transform="matrix(-1,0,0,-1,0,0)">
     <g  id="copper0">
      <g  id="copper1">
       <!-- <rect width="55" x="10" y="10" fill="none" height="55" stroke="rgb(255, 191, 0)" stroke-width="20" /> -->
       <g fill="none" r="1.98" stroke-width="1.44" cx="2.7" cy="2.7"  stroke="black" id="75"/>
       <g fill="none" r="1.98" stroke-width="1.44" cx="24.3" cy="2.7"  stroke="black" id="76"/>
      </g>
     </g>
    </g>
   </g>
  </g>
  <g partID="856340620">
   <g transform="translate(48.0009,52.5826)">
    <g transform="matrix(1,0,0,1,0,0)">
     <g  id="copper0">
      <g  id="copper1">
       <!-- <rect width="55" x="10" y="10" fill="none" height="55" stroke="rgb(255, 191, 0)" stroke-width="20" /> -->
       <g fill="none" r="1.98" stroke-width="1.44" cx="2.7" cy="2.7"  stroke="black" id="77"/>
       <g fill="none" r="1.98" stroke-width="1.44" cx="24.3" cy="2.7"  stroke="black" id="78"/>
      </g>
     </g>
    </g>
   </g>
  </g>
  <g partID="856340480">
   <g transform="translate(75.0009,61.5826)">
    <g transform="matrix(0,1,-1,0,0,0)">
     <g  id="copper0">
      <g  id="copper1">
       <!-- <rect width="55" x="10" y="10" fill="none" height="55" stroke="rgb(255, 191, 0)" stroke-width="20" /> -->
       <g fill="none" r="1.98" stroke-width="1.44" cx="2.7" cy="2.7"  stroke="black" id="79"/>
       <g fill="none" r="1.98" stroke-width="1.44" cx="24.3" cy="2.7"  stroke="black" id="80"/>
      </g>
     </g>
    </g>
   </g>
  </g>
  <g partID="856340630">
   <g transform="translate(117.301,9.05858)">
    <g transform="matrix(0,1,-1,0,0,0)">
     <g  id="copper0">
      <g fill="none" width="4.464" stroke-width="1.44"  x="0.72" y="1.368" stroke="black" height="4.464" id="81"/>
      <g fill="none" r="2.232" stroke-width="1.44" cx="3.024" cy="3.6"  stroke="black" id="82"/>
      <g fill="none" r="2.232" stroke-width="1.44" cx="24.48" cy="3.6"  stroke="black" id="83"/>
     </g>
    </g>
   </g>
  </g>
  <g partID="856340490">
   <g transform="translate(117.301,63.0586)">
    <g transform="matrix(0,1,-1,0,0,0)">
     <g  id="copper0">
      <g fill="none" width="4.464" stroke-width="1.44"  x="0.72" y="1.368" stroke="black" height="4.464" id="84"/>
      <g fill="none" r="2.232" stroke-width="1.44" cx="3.024" cy="3.6"  stroke="black" id="85"/>
      <g fill="none" r="2.232" stroke-width="1.44" cx="24.48" cy="3.6"  stroke="black" id="86"/>
     </g>
    </g>
   </g>
  </g>
  <g partID="856371850">
   <g transform="translate(69.0609,98.8426)">
    <g transform="matrix(-1,0,0,-1,0,0)">
     <g  id="copper0">
      <g width="3.96" fill="none" stroke-width="1.44"  x="1.98" y="5.58" stroke="black" height="3.96" id="87"/>
      <g fill="none" r="1.98" stroke-width="1.44" cx="3.96" cy="7.56"  stroke="black" id="88"/>
      <g fill="none" r="1.98" stroke-width="1.44" cx="11.16" cy="7.56"  stroke="black" id="89"/>
     </g>
    </g>
   </g>
  </g>
  <g partID="856370960">
   <g transform="translate(23.3409,111.443)">
    <g transform="matrix(0,-1,1,0,0,0)">
     <g  id="copper0">
      <g width="3.96" fill="none" stroke-width="1.44"  x="1.98" y="5.58" stroke="black" height="3.96" id="90"/>
      <g fill="none" r="1.98" stroke-width="1.44" cx="3.96" cy="7.56"  stroke="black" id="91"/>
      <g fill="none" r="1.98" stroke-width="1.44" cx="11.16" cy="7.56"  stroke="black" id="92"/>
     </g>
    </g>
   </g>
  </g>
  <g partID="856369900">
   <g transform="translate(69.0609,84.4426)">
    <g transform="matrix(-1,0,0,-1,0,0)">
     <g  id="copper0">
      <g width="3.96" fill="none" stroke-width="1.44"  x="1.98" y="5.58" stroke="black" height="3.96" id="93"/>
      <g fill="none" r="1.98" stroke-width="1.44" cx="3.96" cy="7.56"  stroke="black" id="94"/>
      <g fill="none" r="1.98" stroke-width="1.44" cx="11.16" cy="7.56"  stroke="black" id="95"/>
     </g>
    </g>
   </g>
  </g>
  <g partID="856515600">
   <g transform="translate(12.3609,88.6651)">
    <g transform="matrix(-1,0,0,-1,0,0)">
     <g id="copper0" flipped="1">
      <g transform="matrix(-1, 0, 0, 1, 41.5531, 0)">
       <g>
        <g>
         <g>
          <circle fill="none" r="2.38039" stroke-width="1.35921" cx="3.06" cy="10.2093" stroke="black" connectorname="4" id="96"/>
          <circle fill="none" r="2.38039" stroke-width="1.35921" cx="3.06" cy="24.3825" stroke="black" connectorname="2" id="97"/>
          <g fill="none" r="2.38039" stroke-width="1.35921" cx="38.4931" cy="24.3825" stroke="black" connectorname="1" id="98"/>
          <g fill="none" r="2.38039" stroke-width="1.35921" cx="38.4931" cy="10.2093" stroke="black" connectorname="3" id="99"/>
          <g id="copper0">
           <circle fill="none" r="2.38039" stroke-width="1.35921" cx="3.06" cy="10.2093" stroke="black" connectorname="4" id="100"/>
           <circle fill="none" r="2.38039" stroke-width="1.35921" cx="3.06" cy="24.3825" stroke="black" connectorname="2" id="101"/>
           <g fill="none" r="2.38039" stroke-width="1.35921" cx="38.4931" cy="24.3825" stroke="black" connectorname="1" id="102"/>
           <g fill="none" r="2.38039" stroke-width="1.35921" cx="38.4931" cy="10.2093" stroke="black" connectorname="3" id="103"/>
          </g>
         </g>
         <g>
          <circle fill="none" r="2.38039" stroke-width="1.35921" cx="3.06" cy="10.2093" stroke="black" connectorname="4" id="104"/>
          <circle fill="none" r="2.38039" stroke-width="1.35921" cx="3.06" cy="24.3825" stroke="black" connectorname="2" id="105"/>
          <g fill="none" r="2.38039" stroke-width="1.35921" cx="38.4931" cy="24.3825" stroke="black" connectorname="1" id="106"/>
          <g fill="none" r="2.38039" stroke-width="1.35921" cx="38.4931" cy="10.2093" stroke="black" connectorname="3" id="107"/>
         </g>
        </g>
       </g>
      </g>
     </g>
    </g>
   </g>
  </g>
  <g partID="856440430">
   <g transform="translate(-29.2542,20.285)">
    <g transform="matrix(1,0,0,1,0,0)">
     <g id="copper0" flipped="1">
      <g transform="matrix(-1, 0, 0, 1, 41.5531, 0)">
       <g>
        <g>
         <g>
          <g fill="none" r="2.38039" stroke-width="1.35921" cx="3.06" cy="10.2093" stroke="black" connectorname="4" id="108"/>
          <g fill="none" r="2.38039" stroke-width="1.35921" cx="3.06" cy="24.3825" stroke="black" connectorname="2" id="109"/>
          <circle fill="none" r="2.38039" stroke-width="1.35921" cx="38.4931" cy="24.3825" stroke="black" connectorname="1" id="110"/>
          <circle fill="none" r="2.38039" stroke-width="1.35921" cx="38.4931" cy="10.2093" stroke="black" connectorname="3" id="111"/>
          <g id="copper0">
           <g fill="none" r="2.38039" stroke-width="1.35921" cx="3.06" cy="10.2093" stroke="black" connectorname="4" id="112"/>
           <g fill="none" r="2.38039" stroke-width="1.35921" cx="3.06" cy="24.3825" stroke="black" connectorname="2" id="113"/>
           <circle fill="none" r="2.38039" stroke-width="1.35921" cx="38.4931" cy="24.3825" stroke="black" connectorname="1" id="114"/>
           <circle fill="none" r="2.38039" stroke-width="1.35921" cx="38.4931" cy="10.2093" stroke="black" connectorname="3" id="115"/>
          </g>
         </g>
         <g>
          <g fill="none" r="2.38039" stroke-width="1.35921" cx="3.06" cy="10.2093" stroke="black" connectorname="4" id="116"/>
          <g fill="none" r="2.38039" stroke-width="1.35921" cx="3.06" cy="24.3825" stroke="black" connectorname="2" id="117"/>
          <circle fill="none" r="2.38039" stroke-width="1.35921" cx="38.4931" cy="24.3825" stroke="black" connectorname="1" id="118"/>
          <circle fill="none" r="2.38039" stroke-width="1.35921" cx="38.4931" cy="10.2093" stroke="black" connectorname="3" id="119"/>
         </g>
        </g>
       </g>
      </g>
     </g>
    </g>
   </g>
  </g>
  <g partID="856656580">
   <g transform="translate(26.1489,54.1306)">
    <g  id="copper0">
     <g fill="none" r="1.98" stroke-width="1.44" cx="4.752" cy="4.752"  stroke="black" id="120"/>
     <g fill="none" r="1.98" stroke-width="1.44" cx="4.752" cy="24.552"  stroke="black" id="121"/>
    </g>
   </g>
  </g>
  <g partID="856663150">
   <g transform="translate(72.9489,43.3306)">
    <g  id="copper0">
     <g fill="none" r="1.98" stroke-width="1.44" cx="4.752" cy="35.352"  stroke="black" id="122"/>
     <g fill="none" r="1.98" stroke-width="1.44" cx="4.752" cy="4.752"  stroke="black" id="123"/>
    </g>
   </g>
  </g>
  <g partID="856664650">
   <g transform="translate(76.5489,23.5306)">
    <g  id="copper0">
     <g fill="none" r="1.98" stroke-width="1.44" cx="4.752" cy="47.952"  stroke="black" id="124"/>
     <g fill="none" r="1.98" stroke-width="1.44" cx="4.752" cy="4.752"  stroke="black" id="125"/>
    </g>
   </g>
  </g>
  <g partID="856666050">
   <g transform="translate(33.3489,90.1306)">
    <g  id="copper0">
     <g fill="none" r="1.98" stroke-width="1.44" cx="4.752" cy="10.152"  stroke="black" id="126"/>
     <g fill="none" r="1.98" stroke-width="1.44" cx="53.352" cy="4.752"  stroke="black" id="127"/>
    </g>
   </g>
  </g>
  <g partID="856668000">
   <g transform="translate(47.7489,27.1306)">
    <g  id="copper0">
     <g fill="none" r="1.98" stroke-width="1.44" cx="4.752" cy="4.752"  stroke="black" id="128"/>
     <g fill="none" r="1.98" stroke-width="1.44" cx="28.152" cy="4.752"  stroke="black" id="129"/>
    </g>
   </g>
  </g>
  <g partID="856669430">
   <g transform="translate(7.97079,32.1729)">
    <g  id="copper0">
     <g fill="none" r="1.98" stroke-width="1.44" cx="4.93008" cy="41.1097"  stroke="black" id="130"/>
     <g fill="none" r="1.98" stroke-width="1.44" cx="4.752" cy="4.752"  stroke="black" id="131"/>
    </g>
   </g>
  </g>
 </g>
</svg>
