<?xml version='1.0' encoding='UTF-8' standalone='no'?>
<!-- Created with Fritzing (http://www.fritzing.org/) -->
<svg xmlns="http://www.w3.org/2000/svg" width="2.75591in" baseProfile="tiny" version="1.2"  x="0in" y="0in" xmlns:svg="http://www.w3.org/2000/svg" viewBox="0 0 198.425 113.386" height="1.5748in">
 <g transform="matrix(-1, 0, 0, 1, 198.425, 0)">
  <g partID="57690">
   <g  id="board">
    <rect fill="none" width="197.849" stroke-width="0.5" fill-opacity="0.5"  x="0.288" y="0.288" stroke="black" id="boardoutline" height="112.81"/>
   </g>
  </g>
  <g partID="856379590">
   <g transform="translate(33.8998,116.374)">
    <g transform="matrix(-1,0,0,-1,0,0)">
     <g id="copper0">
      <rect width="4.32" fill="none" stroke-width="1.44" x="12.24" y="6.72661" stroke="black" id="square" height="4.32"/>
      <circle fill="none" r="2.16" stroke-width="1.44" cx="14.4" cy="8.8866" stroke="black" id="connector0pin"/>
      <circle fill="none" r="2.16" stroke-width="1.44" cx="14.4" cy="23.0599" stroke="black" id="connector1pin"/>
     </g>
    </g>
   </g>
  </g>
  <g partID="856461030">
   <g transform="translate(87.7809,111.803)">
    <g transform="matrix(0,-1,1,0,0,0)">
     <g  gorn="0.3.0" id="copper0">
      <rect fill="none" width="3.96" stroke-width="2"  x="2.34" y="2.34" gorn="0.3.0.0" stroke="black" id="square" height="3.96"/>
      <circle fill="none" r="1.98" stroke-width="2" cx="4.32" cy="4.32"  gorn="0.3.0.1" stroke="black" id="connector0pin"/>
      <circle fill="none" r="1.98" stroke-width="2" cx="25.92" cy="4.32"  gorn="0.3.0.2" stroke="black" id="connector5pin"/>
      <circle fill="none" r="1.98" stroke-width="2" cx="4.32" cy="11.52"  gorn="0.3.0.3" stroke="black" id="connector1pin"/>
      <circle fill="none" r="1.98" stroke-width="2" cx="25.92" cy="11.52"  gorn="0.3.0.4" stroke="black" id="connector4pin"/>
      <circle fill="none" r="1.98" stroke-width="2" cx="4.32" cy="18.72"  gorn="0.3.0.5" stroke="black" id="connector2pin"/>
      <circle fill="none" r="1.98" stroke-width="2" cx="25.92" cy="18.72"  gorn="0.3.0.6" stroke="black" id="connector3pin"/>
     </g>
    </g>
   </g>
  </g>
  <g partID="856455010">
   <g transform="translate(85.9809,57.8026)">
    <g transform="matrix(0,-1,1,0,0,0)">
     <g  gorn="0.3.0" id="copper0">
      <rect fill="none" width="3.96" stroke-width="2"  x="2.34" y="2.34" gorn="0.3.0.0" stroke="black" id="square" height="3.96"/>
      <circle fill="none" r="1.98" stroke-width="2" cx="4.32" cy="4.32"  gorn="0.3.0.1" stroke="black" id="connector0pin"/>
      <circle fill="none" r="1.98" stroke-width="2" cx="25.92" cy="4.32"  gorn="0.3.0.2" stroke="black" id="connector5pin"/>
      <circle fill="none" r="1.98" stroke-width="2" cx="4.32" cy="11.52"  gorn="0.3.0.3" stroke="black" id="connector1pin"/>
      <circle fill="none" r="1.98" stroke-width="2" cx="25.92" cy="11.52"  gorn="0.3.0.4" stroke="black" id="connector4pin"/>
      <circle fill="none" r="1.98" stroke-width="2" cx="4.32" cy="18.72"  gorn="0.3.0.5" stroke="black" id="connector2pin"/>
      <circle fill="none" r="1.98" stroke-width="2" cx="25.92" cy="18.72"  gorn="0.3.0.6" stroke="black" id="connector3pin"/>
     </g>
    </g>
   </g>
  </g>
  <g partID="856526450">
   <g transform="translate(11.7489,48.7306)">
    <g  id="copper0">
     <circle fill="none" r="1.98" stroke-width="1.44" cx="4.752" cy="4.752"  stroke="black" id="connector0pad"/>
     <circle fill="none" r="1.98" stroke-width="1.44" cx="26.352" cy="4.752"  stroke="black" id="connector1pad"/>
    </g>
   </g>
  </g>
  <g partID="856355280">
   <g transform="translate(21.0009,15.6106)">
    <g  id="copper0">
     <g  id="copper1">
      <!-- <rect width="55" x="10" y="23.5" fill="none" height="55" stroke="rgb(255, 191, 0)" stroke-width="20" /> -->
      <circle fill="none" r="1.98" stroke-width="1.44" cx="2.7" cy="3.672"  stroke="black" id="connector0pin"/>
      <circle fill="none" r="1.98" stroke-width="1.44" cx="38.7" cy="3.672"  stroke="black" id="connector1pin"/>
     </g>
    </g>
   </g>
  </g>
  <g partID="856443330">
   <g transform="translate(26.4009,59.7826)">
    <g transform="matrix(0,1,-1,0,0,0)">
     <g  id="copper0">
      <g  id="copper1">
       <!-- <rect width="55" x="10" y="10" fill="none" height="55" stroke="rgb(255, 191, 0)" stroke-width="20" /> -->
       <circle fill="none" r="1.98" stroke-width="1.44" cx="2.7" cy="2.7"  stroke="black" id="connector0pin"/>
       <circle fill="none" r="1.98" stroke-width="1.44" cx="24.3" cy="2.7"  stroke="black" id="connector1pin"/>
      </g>
     </g>
    </g>
   </g>
  </g>
  <g partID="856657320">
   <g transform="translate(65.9876,91.3546)">
    <g transform="matrix(0,1,-1,0,0,0)">
     <g id="copper0" flipped="1">
      <g transform="matrix(-1, 0, 0, 1, 19.152, 0)">
       <g>
        <g>
         <g>
          <rect width="3.456" fill="black" stroke-width="0" x="1.296" y="17.5187" stroke="none" connectorname="1" stroke-linecap="round" id="connector0pad" height="6.336"/>
          <rect width="3.456" fill="black" stroke-width="0" x="7.848" y="17.5187" stroke="none" connectorname="2" stroke-linecap="round" id="connector1pad" height="6.336"/>
          <rect width="3.456" fill="black" stroke-width="0" x="14.4" y="17.5187" stroke="none" connectorname="3" stroke-linecap="round" id="connector2pad" height="6.336"/>
          <rect width="10.2047" fill="black" stroke-width="0" x="4.47364" y="0" stroke="none" connectorname="4" stroke-linecap="round" id="connector3pad" height="6.23622"/>
          <g id="copper0"/>
         </g>
         <g/>
        </g>
       </g>
      </g>
     </g>
    </g>
   </g>
  </g>
  <g partID="856657310">
   <g transform="translate(62.3876,57.1546)">
    <g transform="matrix(0,1,-1,0,0,0)">
     <g id="copper0" flipped="1">
      <g transform="matrix(-1, 0, 0, 1, 19.152, 0)">
       <g>
        <g>
         <g gorn="0.3.0">
          <rect width="3.456" fill="black" stroke-width="0" x="1.296" y="17.5187" gorn="0.3.0.0" stroke="none" connectorname="1" stroke-linecap="round" height="6.33599" id="connector0pad"/>
          <rect width="3.456" fill="black" stroke-width="0" x="7.848" y="17.5187" gorn="0.3.0.1" stroke="none" connectorname="2" stroke-linecap="round" height="6.33599" id="connector1pad"/>
          <rect width="3.456" fill="black" stroke-width="0" x="14.4" y="17.5187" gorn="0.3.0.2" stroke="none" connectorname="3" stroke-linecap="round" height="6.33599" id="connector2pad"/>
          <rect width="10.2047" fill="black" stroke-width="0" x="4.47364" y="0" gorn="0.3.0.3" stroke="none" connectorname="4" stroke-linecap="round" height="6.23621" id="connector3pad"/>
          <g gorn="0.3.0.4" id="copper0"/>
         </g>
         <g gorn="0.3.0.4"/>
        </g>
       </g>
      </g>
     </g>
    </g>
   </g>
  </g>
  <g partID="856328190">
   <g transform="translate(41.7845,21.8414)">
    <g transform="matrix(0,1,-1,0,0,0)">
     <g  gorn="0.2.9" id="copper0">
      <rect width="4.13019" fill="none" stroke-width="1.23181"  x="1.84772" y="1.836" stroke="black" height="4.104"/>
      <circle fill="none" r="2.0651" stroke-width="1.23181" cx="3.91281" cy="3.888"  gorn="0.2.9.1" stroke="black" connectorname="1" id="connector6pin"/>
      <circle fill="none" r="2.0651" stroke-width="1.23181" cx="3.91281" cy="11.088"  gorn="0.2.9.2" stroke="black" connectorname="2" id="connector7pin"/>
      <circle fill="none" r="2.0651" stroke-width="1.23181" cx="11.1588" cy="3.888"  gorn="0.2.9.3" stroke="black" connectorname="3" id="connector4pin"/>
      <circle fill="none" r="2.0651" stroke-width="1.23181" cx="11.1588" cy="11.088"  gorn="0.2.9.4" stroke="black" connectorname="4" id="connector5pin"/>
      <circle fill="none" r="2.0651" stroke-width="1.23181" cx="18.4047" cy="3.888"  gorn="0.2.9.5" stroke="black" connectorname="5" id="connector2pin"/>
      <circle fill="none" r="2.0651" stroke-width="1.23181" cx="18.4047" cy="11.088"  gorn="0.2.9.6" stroke="black" connectorname="6" id="connector3pin"/>
      <rect width="4.13019" fill="none" stroke-width="1.23181"  x="23.5856" y="1.836" stroke="black" height="4.104"/>
      <circle fill="none" r="2.0651" stroke-width="1.23181" cx="25.6507" cy="3.888"  gorn="0.2.9.8" stroke="black" connectorname="7" id="connector0pin"/>
      <circle fill="none" r="2.0651" stroke-width="1.23181" cx="25.6507" cy="11.088"  gorn="0.2.9.9" stroke="black" connectorname="8" id="connector1pin"/>
     </g>
    </g>
   </g>
  </g>
  <g partID="856360140">
   <g transform="translate(116.621,5.88882)">
    <g transform="matrix(1, 0, 0, 1, 0, -795.118)">
     <g id="copper0">
      <g>
       <g id="copper1">
        <g transform="matrix(1, 0, 0, 1, 0, 795.118)">
         <g id="0.3.1.0">
          <path fill="none" stroke-width="2.83465" d="m10.4882,23.3858a3.25984,3.25984,0,1,1,-6.51969,0,3.25984,3.25984,0,1,1,6.51969,0z" stroke="black" style="opacity:0.98000004;stroke-miterlimit:4;stroke-dasharray:none" id="connector2pin" stroke-opacity="1"/>
         </g>
        </g>
        <g transform="matrix(1, 0, 0, 1, 5.81102, 812.126)">
         <g id="0.3.1.1">
          <path fill="none" stroke-width="2.83465" d="m10.4882,23.3858a3.25984,3.25984,0,1,1,-6.51969,0,3.25984,3.25984,0,1,1,6.51969,0z" stroke="black" style="opacity:0.98000004;stroke-miterlimit:4;stroke-dasharray:none" id="path3782-7" stroke-opacity="1"/>
         </g>
        </g>
        <g transform="matrix(1, 0, 0, 1, 40.252, 812.126)">
         <g id="0.3.1.2">
          <path fill="none" stroke-width="2.83465" d="m10.4882,23.3858a3.25984,3.25984,0,1,1,-6.51969,0,3.25984,3.25984,0,1,1,6.51969,0z" stroke="black" style="opacity:0.98000004;stroke-miterlimit:4;stroke-dasharray:none" id="path3782-7-5" stroke-opacity="1"/>
         </g>
        </g>
        <g transform="matrix(1, 0, 0, 1, 5.81102, 812.126)">
         <g id="0.3.1.3">
          <path fill="none" stroke-width="2.83465" d="m10.4882,23.3858a3.25984,3.25984,0,1,1,-6.51969,0,3.25984,3.25984,0,1,1,6.51969,0z" stroke="black" style="opacity:0.98000004;stroke-miterlimit:4;stroke-dasharray:none" id="connector1pin" stroke-opacity="1"/>
         </g>
        </g>
        <g transform="matrix(1, 0, 0, 1, 40.252, 812.126)">
         <g id="0.3.1.4">
          <path fill="none" stroke-width="2.83465" d="m10.4882,23.3858a3.25984,3.25984,0,1,1,-6.51969,0,3.25984,3.25984,0,1,1,6.51969,0z" stroke="black" style="opacity:0.98000004;stroke-miterlimit:4;stroke-dasharray:none" id="connector0pin" stroke-opacity="1"/>
         </g>
        </g>
        <g transform="matrix(1, 0, 0, -1, 5.81102, 824.882)">
         <g id="0.3.1.5">
          <path fill="none" stroke-width="2.83465" d="m10.4882,23.3858a3.25984,3.25984,0,1,1,-6.51969,0,3.25984,3.25984,0,1,1,6.51969,0z" stroke="black" style="opacity:0.98000004;stroke-miterlimit:4;stroke-dasharray:none" id="connector4pin" stroke-opacity="1"/>
         </g>
        </g>
        <g transform="matrix(1, 0, 0, -1, 40.252, 824.882)">
         <g id="0.3.1.6">
          <path fill="none" stroke-width="2.83465" d="m10.4882,23.3858a3.25984,3.25984,0,1,1,-6.51969,0,3.25984,3.25984,0,1,1,6.51969,0z" stroke="black" style="opacity:0.98000004;stroke-miterlimit:4;stroke-dasharray:none" id="connector5pin" stroke-opacity="1"/>
         </g>
        </g>
       </g>
      </g>
     </g>
    </g>
   </g>
  </g>
  <g partID="856359000">
   <g transform="translate(116.442,59.5311)">
    <g transform="matrix(1, 0, 0, 1, 0, -795.118)">
     <g id="copper0">
      <g>
       <g id="copper1">
        <g transform="matrix(1, 0, 0, 1, 0, 795.118)">
         <g id="0.3.1.0">
          <path fill="none" stroke-width="2.83465" d="m10.4882,23.3858a3.25984,3.25984,0,1,1,-6.51969,0,3.25984,3.25984,0,1,1,6.51969,0z" stroke="black" style="opacity:0.98000004;stroke-miterlimit:4;stroke-dasharray:none" id="connector2pin" stroke-opacity="1"/>
         </g>
        </g>
        <g transform="matrix(1, 0, 0, 1, 5.81102, 812.126)">
         <g id="0.3.1.1">
          <path fill="none" stroke-width="2.83465" d="m10.4882,23.3858a3.25984,3.25984,0,1,1,-6.51969,0,3.25984,3.25984,0,1,1,6.51969,0z" stroke="black" style="opacity:0.98000004;stroke-miterlimit:4;stroke-dasharray:none" id="path3782-7" stroke-opacity="1"/>
         </g>
        </g>
        <g transform="matrix(1, 0, 0, 1, 40.252, 812.126)">
         <g id="0.3.1.2">
          <path fill="none" stroke-width="2.83465" d="m10.4882,23.3858a3.25984,3.25984,0,1,1,-6.51969,0,3.25984,3.25984,0,1,1,6.51969,0z" stroke="black" style="opacity:0.98000004;stroke-miterlimit:4;stroke-dasharray:none" id="path3782-7-5" stroke-opacity="1"/>
         </g>
        </g>
        <g transform="matrix(1, 0, 0, 1, 5.81102, 812.126)">
         <g id="0.3.1.3">
          <path fill="none" stroke-width="2.83465" d="m10.4882,23.3858a3.25984,3.25984,0,1,1,-6.51969,0,3.25984,3.25984,0,1,1,6.51969,0z" stroke="black" style="opacity:0.98000004;stroke-miterlimit:4;stroke-dasharray:none" id="connector1pin" stroke-opacity="1"/>
         </g>
        </g>
        <g transform="matrix(1, 0, 0, 1, 40.252, 812.126)">
         <g id="0.3.1.4">
          <path fill="none" stroke-width="2.83465" d="m10.4882,23.3858a3.25984,3.25984,0,1,1,-6.51969,0,3.25984,3.25984,0,1,1,6.51969,0z" stroke="black" style="opacity:0.98000004;stroke-miterlimit:4;stroke-dasharray:none" id="connector0pin" stroke-opacity="1"/>
         </g>
        </g>
        <g transform="matrix(1, 0, 0, -1, 5.81102, 824.882)">
         <g id="0.3.1.5">
          <path fill="none" stroke-width="2.83465" d="m10.4882,23.3858a3.25984,3.25984,0,1,1,-6.51969,0,3.25984,3.25984,0,1,1,6.51969,0z" stroke="black" style="opacity:0.98000004;stroke-miterlimit:4;stroke-dasharray:none" id="connector4pin" stroke-opacity="1"/>
         </g>
        </g>
        <g transform="matrix(1, 0, 0, -1, 40.252, 824.882)">
         <g id="0.3.1.6">
          <path fill="none" stroke-width="2.83465" d="m10.4882,23.3858a3.25984,3.25984,0,1,1,-6.51969,0,3.25984,3.25984,0,1,1,6.51969,0z" stroke="black" style="opacity:0.98000004;stroke-miterlimit:4;stroke-dasharray:none" id="connector5pin" stroke-opacity="1"/>
         </g>
        </g>
       </g>
      </g>
     </g>
    </g>
   </g>
  </g>
  <g partID="856360520">
   <g transform="translate(201.919,52.3149)">
    <g transform="matrix(-1,0,0,-1,0,0)">
     <g id="copper0">
      <rect width="4.32" fill="none" stroke-width="1.44" x="12.24" y="6.72661" stroke="black" id="square" height="4.32"/>
      <circle fill="none" r="2.16" stroke-width="1.44" cx="14.4" cy="8.8866" stroke="black" id="connector0pin"/>
      <circle fill="none" r="2.16" stroke-width="1.44" cx="14.4" cy="23.0599" stroke="black" id="connector1pin"/>
      <circle fill="none" r="2.16" stroke-width="1.44" cx="14.4" cy="37.2331" stroke="black" id="connector2pin"/>
     </g>
    </g>
   </g>
  </g>
  <g partID="856359560">
   <g transform="translate(201.205,106.094)">
    <g transform="matrix(-1,0,0,-1,0,0)">
     <g id="copper0">
      <rect width="4.32" fill="none" stroke-width="1.44" x="12.24" y="6.72661" stroke="black" id="square" height="4.32"/>
      <circle fill="none" r="2.16" stroke-width="1.44" cx="14.4" cy="8.8866" stroke="black" id="connector0pin"/>
      <circle fill="none" r="2.16" stroke-width="1.44" cx="14.4" cy="23.0599" stroke="black" id="connector1pin"/>
      <circle fill="none" r="2.16" stroke-width="1.44" cx="14.4" cy="37.2331" stroke="black" id="connector2pin"/>
     </g>
    </g>
   </g>
  </g>
  <g partID="856594640">
   <g transform="translate(86.7009,63.2746)">
    <g  id="copper0">
     <circle fill="none" r="1.98" stroke-width="1.44" cx="3.6" cy="8.208"  stroke="black" id="connector0pin"/>
     <circle fill="none" r="1.98" stroke-width="1.44" cx="10.8" cy="8.208"  stroke="black" id="connector1pin"/>
     <circle fill="none" r="1.98" stroke-width="1.44" cx="18" cy="8.208"  stroke="black" id="connector2pin"/>
    </g>
   </g>
  </g>
  <g partID="856598220">
   <g transform="translate(86.7009,7.47458)">
    <g  id="copper0">
     <circle fill="none" r="1.98" stroke-width="1.44" cx="3.6" cy="8.208"  stroke="black" id="connector0pin"/>
     <circle fill="none" r="1.98" stroke-width="1.44" cx="10.8" cy="8.208"  stroke="black" id="connector1pin"/>
     <circle fill="none" r="1.98" stroke-width="1.44" cx="18" cy="8.208"  stroke="black" id="connector2pin"/>
    </g>
   </g>
  </g>
  <g partID="856633970">
   <g transform="translate(111.001,81.3826)">
    <g transform="matrix(-1,0,0,-1,0,0)">
     <g  id="copper0">
      <g  id="copper1">
       <!-- <rect width="55" x="10" y="10" fill="none" height="55" stroke="rgb(255, 191, 0)" stroke-width="20" /> -->
       <circle fill="none" r="1.98" stroke-width="1.44" cx="2.7" cy="2.7"  stroke="black" id="connector0pin"/>
       <circle fill="none" r="1.98" stroke-width="1.44" cx="24.3" cy="2.7"  stroke="black" id="connector1pin"/>
      </g>
     </g>
    </g>
   </g>
  </g>
  <g partID="856633750">
   <g transform="translate(111.001,27.3826)">
    <g transform="matrix(-1,0,0,-1,0,0)">
     <g  id="copper0">
      <g  id="copper1">
       <!-- <rect width="55" x="10" y="10" fill="none" height="55" stroke="rgb(255, 191, 0)" stroke-width="20" /> -->
       <circle fill="none" r="1.98" stroke-width="1.44" cx="2.7" cy="2.7"  stroke="black" id="connector0pin"/>
       <circle fill="none" r="1.98" stroke-width="1.44" cx="24.3" cy="2.7"  stroke="black" id="connector1pin"/>
      </g>
     </g>
    </g>
   </g>
  </g>
  <g partID="856340620">
   <g transform="translate(48.0009,52.5826)">
    <g transform="matrix(1,0,0,1,0,0)">
     <g  id="copper0">
      <g  id="copper1">
       <!-- <rect width="55" x="10" y="10" fill="none" height="55" stroke="rgb(255, 191, 0)" stroke-width="20" /> -->
       <circle fill="none" r="1.98" stroke-width="1.44" cx="2.7" cy="2.7"  stroke="black" id="connector0pin"/>
       <circle fill="none" r="1.98" stroke-width="1.44" cx="24.3" cy="2.7"  stroke="black" id="connector1pin"/>
      </g>
     </g>
    </g>
   </g>
  </g>
  <g partID="856340480">
   <g transform="translate(75.0009,61.5826)">
    <g transform="matrix(0,1,-1,0,0,0)">
     <g  id="copper0">
      <g  id="copper1">
       <!-- <rect width="55" x="10" y="10" fill="none" height="55" stroke="rgb(255, 191, 0)" stroke-width="20" /> -->
       <circle fill="none" r="1.98" stroke-width="1.44" cx="2.7" cy="2.7"  stroke="black" id="connector0pin"/>
       <circle fill="none" r="1.98" stroke-width="1.44" cx="24.3" cy="2.7"  stroke="black" id="connector1pin"/>
      </g>
     </g>
    </g>
   </g>
  </g>
  <g partID="856340630">
   <g transform="translate(117.301,9.05858)">
    <g transform="matrix(0,1,-1,0,0,0)">
     <g  id="copper0">
      <rect fill="none" width="4.464" stroke-width="1.44"  x="0.72" y="1.368" stroke="black" height="4.464"/>
      <circle fill="none" r="2.232" stroke-width="1.44" cx="3.024" cy="3.6"  stroke="black" id="connector0pin"/>
      <circle fill="none" r="2.232" stroke-width="1.44" cx="24.48" cy="3.6"  stroke="black" id="connector1pin"/>
     </g>
    </g>
   </g>
  </g>
  <g partID="856340490">
   <g transform="translate(117.301,63.0586)">
    <g transform="matrix(0,1,-1,0,0,0)">
     <g  id="copper0">
      <rect fill="none" width="4.464" stroke-width="1.44"  x="0.72" y="1.368" stroke="black" height="4.464"/>
      <circle fill="none" r="2.232" stroke-width="1.44" cx="3.024" cy="3.6"  stroke="black" id="connector0pin"/>
      <circle fill="none" r="2.232" stroke-width="1.44" cx="24.48" cy="3.6"  stroke="black" id="connector1pin"/>
     </g>
    </g>
   </g>
  </g>
  <g partID="856371850">
   <g transform="translate(69.0609,98.8426)">
    <g transform="matrix(-1,0,0,-1,0,0)">
     <g  id="copper0">
      <rect width="3.96" fill="none" stroke-width="1.44"  x="1.98" y="5.58" stroke="black" height="3.96" id="rect11"/>
      <circle fill="none" r="1.98" stroke-width="1.44" cx="3.96" cy="7.56"  stroke="black" id="connector0pin"/>
      <circle fill="none" r="1.98" stroke-width="1.44" cx="11.16" cy="7.56"  stroke="black" id="connector1pin"/>
     </g>
    </g>
   </g>
  </g>
  <g partID="856370960">
   <g transform="translate(23.3409,111.443)">
    <g transform="matrix(0,-1,1,0,0,0)">
     <g  id="copper0">
      <rect width="3.96" fill="none" stroke-width="1.44"  x="1.98" y="5.58" stroke="black" height="3.96" id="rect11"/>
      <circle fill="none" r="1.98" stroke-width="1.44" cx="3.96" cy="7.56"  stroke="black" id="connector0pin"/>
      <circle fill="none" r="1.98" stroke-width="1.44" cx="11.16" cy="7.56"  stroke="black" id="connector1pin"/>
     </g>
    </g>
   </g>
  </g>
  <g partID="856369900">
   <g transform="translate(69.0609,84.4426)">
    <g transform="matrix(-1,0,0,-1,0,0)">
     <g  id="copper0">
      <rect width="3.96" fill="none" stroke-width="1.44"  x="1.98" y="5.58" stroke="black" height="3.96" id="rect11"/>
      <circle fill="none" r="1.98" stroke-width="1.44" cx="3.96" cy="7.56"  stroke="black" id="connector0pin"/>
      <circle fill="none" r="1.98" stroke-width="1.44" cx="11.16" cy="7.56"  stroke="black" id="connector1pin"/>
     </g>
    </g>
   </g>
  </g>
  <g partID="856515600">
   <g transform="translate(12.3609,88.6651)">
    <g transform="matrix(-1,0,0,-1,0,0)">
     <g id="copper0" flipped="1">
      <g transform="matrix(-1, 0, 0, 1, 41.5531, 0)">
       <g>
        <g>
         <g>
          <circle fill="none" r="2.38039" stroke-width="1.35921" cx="3.06" cy="10.2093" stroke="black" connectorname="4" id="connector3pad"/>
          <circle fill="none" r="2.38039" stroke-width="1.35921" cx="3.06" cy="24.3825" stroke="black" connectorname="2" id="connector1pad"/>
          <circle fill="none" r="2.38039" stroke-width="1.35921" cx="38.4931" cy="24.3825" stroke="black" connectorname="1" id="connector0pad"/>
          <circle fill="none" r="2.38039" stroke-width="1.35921" cx="38.4931" cy="10.2093" stroke="black" connectorname="3" id="connector2pad"/>
          <g id="copper0">
           <circle fill="none" r="2.38039" stroke-width="1.35921" cx="3.06" cy="10.2093" stroke="black" connectorname="4" id="connector3pad"/>
           <circle fill="none" r="2.38039" stroke-width="1.35921" cx="3.06" cy="24.3825" stroke="black" connectorname="2" id="connector1pad"/>
           <circle fill="none" r="2.38039" stroke-width="1.35921" cx="38.4931" cy="24.3825" stroke="black" connectorname="1" id="connector0pad"/>
           <circle fill="none" r="2.38039" stroke-width="1.35921" cx="38.4931" cy="10.2093" stroke="black" connectorname="3" id="connector2pad"/>
          </g>
         </g>
         <g>
          <circle fill="none" r="2.38039" stroke-width="1.35921" cx="3.06" cy="10.2093" stroke="black" connectorname="4" id="connector3pad"/>
          <circle fill="none" r="2.38039" stroke-width="1.35921" cx="3.06" cy="24.3825" stroke="black" connectorname="2" id="connector1pad"/>
          <circle fill="none" r="2.38039" stroke-width="1.35921" cx="38.4931" cy="24.3825" stroke="black" connectorname="1" id="connector0pad"/>
          <circle fill="none" r="2.38039" stroke-width="1.35921" cx="38.4931" cy="10.2093" stroke="black" connectorname="3" id="connector2pad"/>
         </g>
        </g>
       </g>
      </g>
     </g>
    </g>
   </g>
  </g>
  <g partID="856440430">
   <g transform="translate(-29.2542,20.285)">
    <g transform="matrix(1,0,0,1,0,0)">
     <g id="copper0" flipped="1">
      <g transform="matrix(-1, 0, 0, 1, 41.5531, 0)">
       <g>
        <g>
         <g>
          <circle fill="none" r="2.38039" stroke-width="1.35921" cx="3.06" cy="10.2093" stroke="black" connectorname="4" id="connector3pad"/>
          <circle fill="none" r="2.38039" stroke-width="1.35921" cx="3.06" cy="24.3825" stroke="black" connectorname="2" id="connector1pad"/>
          <circle fill="none" r="2.38039" stroke-width="1.35921" cx="38.4931" cy="24.3825" stroke="black" connectorname="1" id="connector0pad"/>
          <circle fill="none" r="2.38039" stroke-width="1.35921" cx="38.4931" cy="10.2093" stroke="black" connectorname="3" id="connector2pad"/>
          <g id="copper0">
           <circle fill="none" r="2.38039" stroke-width="1.35921" cx="3.06" cy="10.2093" stroke="black" connectorname="4" id="connector3pad"/>
           <circle fill="none" r="2.38039" stroke-width="1.35921" cx="3.06" cy="24.3825" stroke="black" connectorname="2" id="connector1pad"/>
           <circle fill="none" r="2.38039" stroke-width="1.35921" cx="38.4931" cy="24.3825" stroke="black" connectorname="1" id="connector0pad"/>
           <circle fill="none" r="2.38039" stroke-width="1.35921" cx="38.4931" cy="10.2093" stroke="black" connectorname="3" id="connector2pad"/>
          </g>
         </g>
         <g>
          <circle fill="none" r="2.38039" stroke-width="1.35921" cx="3.06" cy="10.2093" stroke="black" connectorname="4" id="connector3pad"/>
          <circle fill="none" r="2.38039" stroke-width="1.35921" cx="3.06" cy="24.3825" stroke="black" connectorname="2" id="connector1pad"/>
          <circle fill="none" r="2.38039" stroke-width="1.35921" cx="38.4931" cy="24.3825" stroke="black" connectorname="1" id="connector0pad"/>
          <circle fill="none" r="2.38039" stroke-width="1.35921" cx="38.4931" cy="10.2093" stroke="black" connectorname="3" id="connector2pad"/>
         </g>
        </g>
       </g>
      </g>
     </g>
    </g>
   </g>
  </g>
  <g partID="856656580">
   <g transform="translate(26.1489,54.1306)">
    <g  id="copper0">
     <circle fill="none" r="1.98" stroke-width="1.44" cx="4.752" cy="4.752"  stroke="black" id="connector0pad"/>
     <circle fill="none" r="1.98" stroke-width="1.44" cx="4.752" cy="24.552"  stroke="black" id="connector1pad"/>
    </g>
   </g>
  </g>
  <g partID="856663150">
   <g transform="translate(72.9489,43.3306)">
    <g  id="copper0">
     <circle fill="none" r="1.98" stroke-width="1.44" cx="4.752" cy="35.352"  stroke="black" id="connector0pad"/>
     <circle fill="none" r="1.98" stroke-width="1.44" cx="4.752" cy="4.752"  stroke="black" id="connector1pad"/>
    </g>
   </g>
  </g>
  <g partID="856664650">
   <g transform="translate(76.5489,23.5306)">
    <g  id="copper0">
     <circle fill="none" r="1.98" stroke-width="1.44" cx="4.752" cy="47.952"  stroke="black" id="connector0pad"/>
     <circle fill="none" r="1.98" stroke-width="1.44" cx="4.752" cy="4.752"  stroke="black" id="connector1pad"/>
    </g>
   </g>
  </g>
  <g partID="856666050">
   <g transform="translate(33.3489,90.1306)">
    <g  id="copper0">
     <circle fill="none" r="1.98" stroke-width="1.44" cx="4.752" cy="10.152"  stroke="black" id="connector0pad"/>
     <circle fill="none" r="1.98" stroke-width="1.44" cx="53.352" cy="4.752"  stroke="black" id="connector1pad"/>
    </g>
   </g>
  </g>
  <g partID="856668000">
   <g transform="translate(47.7489,27.1306)">
    <g  id="copper0">
     <circle fill="none" r="1.98" stroke-width="1.44" cx="4.752" cy="4.752"  stroke="black" id="connector0pad"/>
     <circle fill="none" r="1.98" stroke-width="1.44" cx="28.152" cy="4.752"  stroke="black" id="connector1pad"/>
    </g>
   </g>
  </g>
  <g partID="856668520">
   <g transform="translate(2.78275,102.764)">
    <g  id="copper0">
     <circle fill="black" r="3.11811" stroke-width="0" cx="4.71811" cy="4.71811"  stroke="black" id="nonconn0"/>
    </g>
   </g>
  </g>
  <g partID="856668550">
   <g transform="translate(179.183,1.96445)">
    <g  id="copper0">
     <circle fill="black" r="3.11811" stroke-width="0" cx="4.71811" cy="4.71811"  stroke="black" id="nonconn0"/>
    </g>
   </g>
  </g>
  <g partID="856669430">
   <g transform="translate(7.97079,32.1729)">
    <g  id="copper0">
     <circle fill="none" r="1.98" stroke-width="1.44" cx="4.93008" cy="41.1097"  stroke="black" id="connector0pad"/>
     <circle fill="none" r="1.98" stroke-width="1.44" cx="4.752" cy="4.752"  stroke="black" id="connector1pad"/>
    </g>
   </g>
  </g>
  <g partID="856515440">
   <line y1="74.4446" stroke-width="2.304" y2="71.4329" x1="58.2295" x2="58.6355" stroke="black" stroke-linecap="round"/>
  </g>
  <g partID="856642570">
   <line y1="24.1043" stroke-width="2.304" y2="22.937" x1="89.092" x2="93.9191" stroke="black" stroke-linecap="round"/>
  </g>
  <g partID="856671650">
   <line y1="22.937" stroke-width="2.304" y2="17.8884" x1="93.9191" x2="96.4118" stroke="black" stroke-linecap="round"/>
  </g>
  <g partID="856411160">
   <line y1="14.7667" stroke-width="3.456" y2="12.6299" x1="184.898" x2="167.122" stroke="black" stroke-linecap="round"/>
  </g>
  <g partID="856412160">
   <line y1="21.7425" stroke-width="2.304" y2="26.4505" x1="23.6827" x2="23.648" stroke="black" stroke-linecap="round"/>
  </g>
  <g partID="856412250">
   <line y1="26.4505" stroke-width="2.304" y2="31.1968" x1="23.648" x2="28.7558" stroke="black" stroke-linecap="round"/>
  </g>
  <g partID="856507940">
   <line y1="79.3426" stroke-width="2.304" y2="88.8226" x1="65.1009" x2="65.1009" stroke="black" stroke-linecap="round"/>
  </g>
  <g partID="856487740">
   <line y1="54.1715" stroke-width="2.304" y2="55.2617" x1="88.2326" x2="84.9596" stroke="black" stroke-linecap="round"/>
  </g>
  <g partID="856672630">
   <line y1="55.2617" stroke-width="2.304" y2="55.2785" x1="84.9596" x2="74.7609" stroke="black" stroke-linecap="round"/>
  </g>
  <g partID="856639710">
   <line y1="66.0528" stroke-width="2.304" y2="65.9425" x1="116.413" x2="126.44" stroke="black" stroke-linecap="round"/>
  </g>
  <g partID="856444740">
   <line y1="44.5454" stroke-width="2.304" y2="41.9504" x1="25.5804" x2="28.6683" stroke="black" stroke-linecap="round"/>
  </g>
  <g partID="856672950">
   <line y1="55.2617" stroke-width="2.304" y2="44.5454" x1="25.5804" x2="25.5804" stroke="black" stroke-linecap="round"/>
  </g>
  <g partID="856444700">
   <line y1="60.1019" stroke-width="2.304" y2="55.2617" x1="24.3206" x2="25.5804" stroke="black" stroke-linecap="round"/>
  </g>
  <g partID="856526540">
   <line y1="46.9064" stroke-width="2.304" y2="51.5839" x1="11.0833" x2="14.9367" stroke="black" stroke-linecap="round"/>
  </g>
  <g partID="856640380">
   <line y1="100.359" stroke-width="2.304" y2="81.3566" x1="9.36689" x2="9.30962" stroke="black" stroke-linecap="round"/>
  </g>
  <g partID="856526020">
   <line y1="107.482" stroke-width="2.304" y2="100.359" x1="16.4903" x2="9.36689" stroke="black" stroke-linecap="round"/>
  </g>
  <g partID="856526030">
   <line y1="107.483" stroke-width="2.304" y2="107.482" x1="16.8598" x2="16.4903" stroke="black" stroke-linecap="round"/>
  </g>
  <g partID="856523980">
   <line y1="13.8017" stroke-width="2.304" y2="27.5935" x1="9.24238" x2="9.23947" stroke="black" stroke-linecap="round"/>
  </g>
  <g partID="856658970">
   <line y1="8.53139" stroke-width="2.304" y2="13.8017" x1="14.6884" x2="9.24238" stroke="black" stroke-linecap="round"/>
  </g>
  <g partID="856523730">
   <line y1="8.53139" stroke-width="2.304" y2="8.53139" x1="38.0536" x2="14.6884" stroke="black" stroke-linecap="round"/>
  </g>
  <g partID="856523490">
   <line y1="23.1051" stroke-width="2.304" y2="8.53139" x1="37.9206" x2="38.0536" stroke="black" stroke-linecap="round"/>
  </g>
  <g partID="856652820">
   <line y1="100.235" stroke-width="2.304" y2="100.275" x1="16.4452" x2="28.4409" stroke="black" stroke-linecap="round"/>
  </g>
  <g partID="856480620">
   <line y1="96.7217" stroke-width="2.304" y2="100.235" x1="12.9316" x2="16.4452" stroke="black" stroke-linecap="round"/>
  </g>
  <g partID="856504170">
   <line y1="84.0729" stroke-width="2.304" y2="96.7217" x1="12.9316" x2="12.9316" stroke="black" stroke-linecap="round"/>
  </g>
  <g partID="856525680">
   <line y1="66.1501" stroke-width="2.304" y2="84.0729" x1="30.8832" x2="12.9316" stroke="black" stroke-linecap="round"/>
  </g>
  <g partID="856480630">
   <line y1="61.5066" stroke-width="2.304" y2="66.1501" x1="39.2952" x2="30.8832" stroke="black" stroke-linecap="round"/>
  </g>
  <g partID="856666860">
   <line y1="84.1008" stroke-width="2.304" y2="84.0729" x1="61.4795" x2="47.0131" stroke="black" stroke-linecap="round"/>
  </g>
  <g partID="856507070">
   <line y1="89.086" stroke-width="2.304" y2="84.1008" x1="63.9933" x2="61.4795" stroke="black" stroke-linecap="round"/>
  </g>
  <g partID="856672680">
   <line y1="80.5593" stroke-width="2.304" y2="74.6106" x1="41.7428" x2="41.7085" stroke="black" stroke-linecap="round"/>
  </g>
  <g partID="856507410">
   <line y1="84.0729" stroke-width="2.304" y2="80.5593" x1="47.0131" x2="41.7428" stroke="black" stroke-linecap="round"/>
  </g>
  <g partID="856671820">
   <line y1="46.3021" stroke-width="2.304" y2="24.6938" x1="59.6619" x2="59.6619" stroke="black" stroke-linecap="round"/>
  </g>
  <g partID="856672160">
   <line y1="24.6938" stroke-width="2.304" y2="21.7425" x1="59.6619" x2="59.6832" stroke="black" stroke-linecap="round"/>
  </g>
  <g partID="856652880">
   <line y1="53.5412" stroke-width="2.304" y2="46.3021" x1="52.4385" x2="59.6619" stroke="black" stroke-linecap="round"/>
  </g>
  <g partID="856672930">
   <line y1="96.7217" stroke-width="2.304" y2="88.2221" x1="75.8243" x2="73.0614" stroke="black" stroke-linecap="round"/>
  </g>
  <g partID="856666800">
   <line y1="103.924" stroke-width="2.304" y2="96.7217" x1="75.8243" x2="75.8243" stroke="black" stroke-linecap="round"/>
  </g>
  <g partID="856665800">
   <line y1="107.438" stroke-width="2.304" y2="103.924" x1="79.5135" x2="75.8243" stroke="black" stroke-linecap="round"/>
  </g>
  <g partID="856485750">
   <line y1="107.475" stroke-width="2.304" y2="107.438" x1="89.9209" x2="79.5135" stroke="black" stroke-linecap="round"/>
  </g>
  <g partID="856480080">
   <line y1="107.483" stroke-width="2.304" y2="107.483" x1="42.5329" x2="33.3609" stroke="black" stroke-linecap="round"/>
  </g>
  <g partID="856411340">
   <line y1="68.5235" stroke-width="3.456" y2="66.2984" x1="184.187" x2="166.94" stroke="black" stroke-linecap="round"/>
  </g>
  <g partID="856417400">
   <line y1="93.6984" stroke-width="2.304" y2="91.8696" x1="48.0689" x2="55.5119" stroke="black" stroke-linecap="round"/>
  </g>
  <g partID="856526470">
   <line y1="50.1397" stroke-width="2.304" y2="51.024" x1="37.9868" x2="38.017" stroke="black" stroke-linecap="round"/>
  </g>
  <g partID="856672980">
   <line y1="62.4645" stroke-width="2.304" y2="63.5672" x1="16.4452" x2="12.1121" stroke="black" stroke-linecap="round"/>
  </g>
  <g partID="856534260">
   <line y1="55.2617" stroke-width="2.304" y2="62.4645" x1="21.8912" x2="16.4452" stroke="black" stroke-linecap="round"/>
  </g>
  <g partID="856672910">
   <line y1="26.4505" stroke-width="2.304" y2="37.3426" x1="14.6884" x2="21.8912" stroke="black" stroke-linecap="round"/>
  </g>
  <g partID="856672890">
   <line y1="37.3426" stroke-width="2.304" y2="55.2617" x1="21.8912" x2="21.8912" stroke="black" stroke-linecap="round"/>
  </g>
  <g partID="856658930">
   <line y1="19.2477" stroke-width="2.304" y2="26.4505" x1="14.6884" x2="14.6884" stroke="black" stroke-linecap="round"/>
  </g>
  <g partID="856534210">
   <line y1="13.8017" stroke-width="2.304" y2="19.2477" x1="18.3776" x2="14.6884" stroke="black" stroke-linecap="round"/>
  </g>
  <g partID="856672870">
   <line y1="13.8017" stroke-width="2.304" y2="13.8017" x1="27.3372" x2="18.3776" stroke="black" stroke-linecap="round"/>
  </g>
  <g partID="856534150">
   <line y1="15.7342" stroke-width="2.304" y2="13.8017" x1="30.8508" x2="27.3372" stroke="black" stroke-linecap="round"/>
  </g>
  <g partID="856534160">
   <line y1="23.1053" stroke-width="2.304" y2="15.7342" x1="30.7373" x2="30.8508" stroke="black" stroke-linecap="round"/>
  </g>
  <g partID="856411300">
   <line y1="83.0296" stroke-width="3.456" y2="82.9226" x1="184.165" x2="126.713" stroke="black" stroke-linecap="round"/>
  </g>
  <g partID="856411220">
   <line y1="43.7477" stroke-width="3.456" y2="45.9144" x1="184.899" x2="167.121" stroke="black" stroke-linecap="round"/>
  </g>
  <g partID="856639930">
   <line y1="84.8266" stroke-width="2.304" y2="71.4241" x1="113.713" x2="113.771" stroke="black" stroke-linecap="round"/>
  </g>
  <g partID="856644570">
   <line y1="71.4241" stroke-width="2.304" y2="71.4667" x1="113.771" x2="107.161" stroke="black" stroke-linecap="round"/>
  </g>
  <g partID="856479360">
   <line y1="107.484" stroke-width="2.304" y2="107.486" x1="28.4409" x2="22.1398" stroke="black" stroke-linecap="round"/>
  </g>
  <g partID="856644920">
   <line y1="78.6802" stroke-width="2.304" y2="78.672" x1="89.1609" x2="97.5384" stroke="black" stroke-linecap="round"/>
  </g>
  <g partID="856644940">
   <line y1="78.672" stroke-width="2.304" y2="73.9425" x1="97.5384" x2="97.5137" stroke="black" stroke-linecap="round"/>
  </g>
  <g partID="856411380">
   <line y1="97.519" stroke-width="3.456" y2="99.5661" x1="184.183" x2="166.944" stroke="black" stroke-linecap="round"/>
  </g>
  <g partID="856670530">
   <line y1="22.937" stroke-width="2.304" y2="17.2191" x1="113.771" x2="106.622" stroke="black" stroke-linecap="round"/>
  </g>
  <g partID="856639210">
   <line y1="30.8266" stroke-width="2.304" y2="22.937" x1="113.719" x2="113.771" stroke="black" stroke-linecap="round"/>
  </g>
  <g partID="856480540">
   <line y1="94.2644" stroke-width="2.304" y2="93.4228" x1="42.5329" x2="22.1375" stroke="black" stroke-linecap="round"/>
  </g>
  <g partID="856411260">
   <line y1="29.2558" stroke-width="3.456" y2="29.2737" x1="184.879" x2="126.892" stroke="black" stroke-linecap="round"/>
  </g>
  <g partID="856513030">
   <line y1="93.0259" stroke-width="2.304" y2="96.6443" x1="66.8365" x2="70.4392" stroke="black" stroke-linecap="round"/>
  </g>
  <g partID="856652060">
   <line y1="96.6443" stroke-width="2.304" y2="105.741" x1="70.4392" x2="70.4696" stroke="black" stroke-linecap="round"/>
  </g>
  <g partID="856513310">
   <line y1="105.741" stroke-width="2.304" y2="109.326" x1="70.4696" x2="66.8553" stroke="black" stroke-linecap="round"/>
  </g>
  <g partID="856651820">
   <line y1="109.326" stroke-width="2.304" y2="109.223" x1="66.8553" x2="50.6824" stroke="black" stroke-linecap="round"/>
  </g>
  <g partID="856531200">
   <line y1="109.223" stroke-width="2.304" y2="108.378" x1="50.6824" x2="48.0689" stroke="black" stroke-linecap="round"/>
  </g>
  <g partID="856669180">
   <line y1="69.7628" stroke-width="2.304" y2="76.7719" x1="34.4959" x2="31.671" stroke="black" stroke-linecap="round"/>
  </g>
  <g partID="856657970">
   <line y1="67.8955" stroke-width="2.304" y2="69.7628" x1="38.9329" x2="34.4959" stroke="black" stroke-linecap="round"/>
  </g>
  <g partID="856658140">
   <line y1="49.7409" stroke-width="2.304" y2="56.8229" x1="30.7368" x2="30.8639" stroke="black" stroke-linecap="round"/>
  </g>
  <g partID="856658710">
   <line y1="80.1586" stroke-width="2.304" y2="82.6066" x1="28.9329" x2="25.6689" stroke="black" stroke-linecap="round"/>
  </g>
  <g partID="856659670">
   <line y1="30.0747" stroke-width="2.304" y2="15.6697" x1="43.5591" x2="43.5591" stroke="black" stroke-linecap="round"/>
  </g>
  <g partID="856659650">
   <line y1="31.9678" stroke-width="2.304" y2="30.0747" x1="39.8948" x2="43.5591" stroke="black" stroke-linecap="round"/>
  </g>
  <g partID="856659700">
   <line y1="15.6697" stroke-width="2.304" y2="8.54634" x1="43.5591" x2="50.6824" stroke="black" stroke-linecap="round"/>
  </g>
  <g partID="856659730">
   <line y1="13.8017" stroke-width="2.304" y2="33.6533" x1="68.6215" x2="68.6215" stroke="black" stroke-linecap="round"/>
  </g>
  <g partID="856672300">
   <line y1="33.6533" stroke-width="2.304" y2="46.3021" x1="68.6215" x2="84.9596" stroke="black" stroke-linecap="round"/>
  </g>
  <g partID="856672430">
   <line y1="8.53139" stroke-width="2.304" y2="13.8017" x1="62.2971" x2="68.6215" stroke="black" stroke-linecap="round"/>
  </g>
  <g partID="856663720">
   <line y1="46.3021" stroke-width="2.304" y2="46.2211" x1="84.9596" x2="95.6388" stroke="black" stroke-linecap="round"/>
  </g>
  <g partID="856663520">
   <line y1="8.54634" stroke-width="2.304" y2="8.53139" x1="50.6824" x2="62.2971" stroke="black" stroke-linecap="round"/>
  </g>
  <g partID="856663700">
   <line y1="46.2211" stroke-width="2.304" y2="51.3709" x1="95.6388" x2="96.9594" stroke="black" stroke-linecap="round"/>
  </g>
  <g partID="856659860">
   <line y1="26.8829" stroke-width="2.304" y2="29.9327" x1="107.201" x2="105.676" stroke="black" stroke-linecap="round"/>
  </g>
  <g partID="856660260">
   <line y1="63.3706" stroke-width="2.304" y2="49.8157" x1="113.713" x2="113.771" stroke="black" stroke-linecap="round"/>
  </g>
  <g partID="856660340">
   <line y1="49.8157" stroke-width="2.304" y2="33.4971" x1="113.771" x2="98.9657" stroke="black" stroke-linecap="round"/>
  </g>
  <g partID="856661860">
   <line y1="81.0691" stroke-width="2.304" y2="83.7677" x1="107.704" x2="107.03" stroke="black" stroke-linecap="round"/>
  </g>
  <g partID="856666080">
   <line y1="91.2757" stroke-width="2.304" y2="81.1175" x1="79.5135" x2="78.0514" stroke="black" stroke-linecap="round"/>
  </g>
  <g partID="856665990">
   <line y1="100.235" stroke-width="2.304" y2="91.2757" x1="81.2703" x2="79.5135" stroke="black" stroke-linecap="round"/>
  </g>
  <g partID="856664260">
   <line y1="100.359" stroke-width="2.304" y2="100.235" x1="95.6388" x2="81.2703" stroke="black" stroke-linecap="round"/>
  </g>
  <g partID="856663220">
   <line y1="105.544" stroke-width="2.304" y2="100.359" x1="98.3042" x2="95.6388" stroke="black" stroke-linecap="round"/>
  </g>
  <g partID="856663480">
   <line y1="13.8017" stroke-width="2.304" y2="13.8017" x1="52.4591" x2="59.6619" stroke="black" stroke-linecap="round"/>
  </g>
  <g partID="856672120">
   <line y1="37.3426" stroke-width="2.304" y2="46.6085" x1="63.3512" x2="75.7314" stroke="black" stroke-linecap="round"/>
  </g>
  <g partID="856663430">
   <line y1="13.8017" stroke-width="2.304" y2="17.491" x1="59.6619" x2="63.3512" stroke="black" stroke-linecap="round"/>
  </g>
  <g partID="856672260">
   <line y1="17.491" stroke-width="2.304" y2="37.3426" x1="63.3512" x2="63.3512" stroke="black" stroke-linecap="round"/>
  </g>
  <g partID="856663290">
   <line y1="39.2026" stroke-width="2.304" y2="35.4568" x1="39.889" x2="47.0416" stroke="black" stroke-linecap="round"/>
  </g>
  <g partID="856663380">
   <line y1="19.2477" stroke-width="2.304" y2="13.8017" x1="47.0131" x2="52.4591" stroke="black" stroke-linecap="round"/>
  </g>
  <g partID="856663330">
   <line y1="35.4568" stroke-width="2.304" y2="19.2477" x1="47.0416" x2="47.0131" stroke="black" stroke-linecap="round"/>
  </g>
  <g partID="856664670">
   <line y1="16.5859" stroke-width="2.304" y2="19.2477" x1="88.0127" x2="81.2703" stroke="black" stroke-linecap="round"/>
  </g>
  <g partID="856672450">
   <line y1="19.2477" stroke-width="2.304" y2="25.8226" x1="81.2703" x2="81.2926" stroke="black" stroke-linecap="round"/>
  </g>
  <g partID="856665120">
   <line y1="71.4826" stroke-width="2.304" y2="71.4826" x1="83.7609" x2="87.8409" stroke="black" stroke-linecap="round"/>
  </g>
  <g partID="856665340">
   <line y1="76.1047" stroke-width="2.304" y2="72.2605" x1="67.4346" x2="78.9671" stroke="black" stroke-linecap="round"/>
  </g>
  <g partID="856666380">
   <line y1="100.283" stroke-width="2.304" y2="100.283" x1="32.9609" x2="36.0409" stroke="black" stroke-linecap="round"/>
  </g>
  <g partID="856666530">
   <line y1="100.467" stroke-width="2.304" y2="100.681" x1="40.1526" x2="42.5329" stroke="black" stroke-linecap="round"/>
  </g>
  <g partID="856666630">
   <line y1="87.9028" stroke-width="2.304" y2="94.8524" x1="98.4818" x2="95.6641" stroke="black" stroke-linecap="round"/>
  </g>
  <g partID="856666690">
   <line y1="94.8524" stroke-width="2.304" y2="94.8743" x1="95.6641" x2="89.1609" stroke="black" stroke-linecap="round"/>
  </g>
  <g partID="856667470">
   <line y1="63.0991" stroke-width="2.304" y2="57.252" x1="56.5513" x2="52.175" stroke="black" stroke-linecap="round"/>
  </g>
  <g partID="856667730">
   <line y1="64.7368" stroke-width="2.304" y2="66.22" x1="69.8832" x2="61.9876" stroke="black" stroke-linecap="round"/>
  </g>
  <g partID="856671980">
   <line y1="39.0993" stroke-width="2.304" y2="34.3425" x1="52.4591" x2="52.4867" stroke="black" stroke-linecap="round"/>
  </g>
  <g partID="856671910">
   <line y1="44.5454" stroke-width="2.304" y2="39.0993" x1="45.2563" x2="52.4591" stroke="black" stroke-linecap="round"/>
  </g>
  <g partID="856671680">
   <line y1="55.2617" stroke-width="2.304" y2="44.5454" x1="45.2563" x2="45.2563" stroke="black" stroke-linecap="round"/>
  </g>
  <g partID="856668030">
   <line y1="58.8506" stroke-width="2.304" y2="55.2617" x1="42.6612" x2="45.2563" stroke="black" stroke-linecap="round"/>
  </g>
  <g partID="856672360">
   <line y1="8.53139" stroke-width="2.304" y2="13.8017" x1="79.5135" x2="75.8243" stroke="black" stroke-linecap="round"/>
  </g>
  <g partID="856672050">
   <line y1="13.8017" stroke-width="2.304" y2="29.4226" x1="75.8243" x2="75.8905" stroke="black" stroke-linecap="round"/>
  </g>
  <g partID="856670970">
   <line y1="8.53139" stroke-width="2.304" y2="8.53139" x1="110.081" x2="79.5135" stroke="black" stroke-linecap="round"/>
  </g>
  <g partID="856668200">
   <line y1="10.1832" stroke-width="2.304" y2="8.53139" x1="111.765" x2="110.081" stroke="black" stroke-linecap="round"/>
  </g>
  <g partID="856671110">
   <line y1="40.8561" stroke-width="2.304" y2="40.8561" x1="92.1623" x2="88.4731" stroke="black" stroke-linecap="round"/>
  </g>
  <g partID="856668380">
   <line y1="33.7561" stroke-width="2.304" y2="40.8561" x1="96.3863" x2="92.1623" stroke="black" stroke-linecap="round"/>
  </g>
  <g partID="856668450">
   <line y1="40.8561" stroke-width="2.304" y2="33.3117" x1="88.4731" x2="77.9032" stroke="black" stroke-linecap="round"/>
  </g>
  <g partID="856669860">
   <line y1="76.0748" stroke-width="2.304" y2="75.3018" x1="10.9578" x2="11.4957" stroke="black" stroke-linecap="round"/>
  </g>
  <g partID="856670070">
   <line y1="34.7619" stroke-width="2.304" y2="33.0448" x1="11.551" x2="10.6207" stroke="black" stroke-linecap="round"/>
  </g>
  <g partID="856670680">
   <line y1="12.1093" stroke-width="2.304" y2="12.2362" x1="116.013" x2="127.018" stroke="black" stroke-linecap="round"/>
  </g>
  <g partID="856670740">
   <line y1="34.9812" stroke-width="2.304" y2="44.6336" x1="115.508" x2="127.595" stroke="black" stroke-linecap="round"/>
  </g>
  <g partID="856672660">
   <line y1="88.966" stroke-width="2.304" y2="98.2933" x1="115.52" x2="127.403" stroke="black" stroke-linecap="round"/>
  </g>
  <g partID="856673010">
   <g transform="translate(179.183,102.764)">
    <g  id="copper0">
     <circle fill="black" r="3.11811" stroke-width="0" cx="4.71811" cy="4.71811"  stroke="black" id="nonconn0"/>
    </g>
   </g>
  </g>
  <g partID="856673040">
   <g transform="translate(2.78275,1.96445)">
    <g  id="copper0">
     <circle fill="black" r="3.11811" stroke-width="0" cx="4.71811" cy="4.71811"  stroke="black" id="nonconn0"/>
    </g>
   </g>
  </g>
 </g>
</svg>
